<svg xmlns="http://www.w3.org/2000/svg" viewBox="0 0 81.16 28.38"><defs><style>.a{fill:#fff;}</style></defs><title>cta</title><path class="a" d="M3.91,2c2.27,0,3.43,1.7,3.43,3.91C7.34,8.41,6.15,10,3.89,10h-3V2ZM2.08,3.08V8.93H3.93c1.5,0,2.21-1.06,2.21-3,0-1.69-.73-2.81-2.23-2.81Z" transform="translate(-0.89 -1.82)"/><path class="a" d="M9.88,10H8.69V2H9.88Z" transform="translate(-0.89 -1.82)"/><path class="a" d="M15.87,4.26c-.06-.67-.46-1.35-1.69-1.35-1,0-1.61.39-1.61,1.14s.71.93,2.67,1.44a2.26,2.26,0,0,1,2,2.32c0,1.42-1.22,2.39-3,2.39a2.83,2.83,0,0,1-3.08-2.62h1.23A1.65,1.65,0,0,0,14.15,9.1c1.1,0,1.85-.48,1.85-1.29,0-1-.69-1.06-2.73-1.59a2.22,2.22,0,0,1-1.88-2.17c0-1.31,1.15-2.23,2.79-2.23A2.59,2.59,0,0,1,17.1,4.26Z" transform="translate(-0.89 -1.82)"/><path class="a" d="M23.55,4.39a1.87,1.87,0,0,0-2-1.46C20.06,2.93,19.33,4,19.33,6s.72,3.08,2.21,3.08a1.92,1.92,0,0,0,2.05-1.52H24.8a3.08,3.08,0,0,1-3.26,2.64c-2.23,0-3.41-1.65-3.41-4.2s1.21-4.17,3.42-4.17a3,3,0,0,1,3.23,2.57Z" transform="translate(-0.89 -1.82)"/><path class="a" d="M32.41,5.91c0,2.55-1.15,4.29-3.42,4.29s-3.41-1.7-3.41-4.26S26.83,1.82,29,1.82,32.41,3.69,32.41,5.91Zm-5.63,0c0,2,.72,3.14,2.2,3.14s2.23-1.15,2.23-3.15c0-1.73-.7-3-2.23-3S26.78,4,26.78,5.94Z" transform="translate(-0.89 -1.82)"/><path class="a" d="M36.73,10H35.55L32.84,2h1.23l2.08,6.29L38.25,2h1.21Z" transform="translate(-0.89 -1.82)"/><path class="a" d="M45.87,3.08H41.53V5.37H45.1V6.48H41.53V8.93h4.34V10H40.34V2h5.53Z" transform="translate(-0.89 -1.82)"/><path class="a" d="M50.68,2a2.41,2.41,0,0,1,2.56,2.43,2.38,2.38,0,0,1-1.62,2.25l2,3.4H52.24L50.37,6.78H48.44V10H47.25V2ZM48.44,3.08V5.67h2.24a1.3,1.3,0,1,0,0-2.59Z" transform="translate(-0.89 -1.82)"/><path class="a" d="M63.81,10H62.62L59,4.09V10H57.85V2H59l3.58,5.92V2h1.19Z" transform="translate(-0.89 -1.82)"/><path class="a" d="M72,5.91c0,2.55-1.15,4.29-3.41,4.29s-3.41-1.7-3.41-4.26,1.25-4.12,3.41-4.12S72,3.69,72,5.91Zm-5.62,0c0,2,.72,3.14,2.19,3.14s2.23-1.15,2.23-3.15c0-1.73-.69-3-2.23-3S66.36,4,66.36,5.94Z" transform="translate(-0.89 -1.82)"/><path class="a" d="M80,10H78.87L77.25,3.9,75.58,10h-1L72.44,2h1.24l1.45,6,1.59-6h1l1.61,6L80.83,2h1.22Z" transform="translate(-0.89 -1.82)"/><path d="M3.91,22c2.27,0,3.43,1.7,3.43,3.91C7.34,28.41,6.15,30,3.89,30h-3V22ZM2.08,23.08v5.85H3.93c1.5,0,2.21-1.06,2.21-3,0-1.69-.73-2.81-2.23-2.81Z" transform="translate(-0.89 -1.82)"/><path d="M9.88,30H8.69V22H9.88Z" transform="translate(-0.89 -1.82)"/><path d="M15.87,24.26c-.06-.67-.46-1.35-1.69-1.35-1,0-1.61.39-1.61,1.14s.71.93,2.67,1.44a2.26,2.26,0,0,1,2,2.32c0,1.42-1.22,2.39-3,2.39a2.83,2.83,0,0,1-3.08-2.62h1.23a1.65,1.65,0,0,0,1.84,1.52c1.1,0,1.85-.48,1.85-1.29,0-1-.69-1.06-2.73-1.59a2.22,2.22,0,0,1-1.88-2.17c0-1.31,1.15-2.23,2.79-2.23a2.59,2.59,0,0,1,2.92,2.44Z" transform="translate(-0.89 -1.82)"/><path d="M23.55,24.39a1.87,1.87,0,0,0-2-1.46c-1.49,0-2.22,1.11-2.22,3.06s.72,3.08,2.21,3.08a1.92,1.92,0,0,0,2.05-1.52H24.8a3.08,3.08,0,0,1-3.26,2.64c-2.23,0-3.41-1.65-3.41-4.2s1.21-4.17,3.42-4.17a3,3,0,0,1,3.23,2.57Z" transform="translate(-0.89 -1.82)"/><path d="M32.41,25.91c0,2.55-1.15,4.29-3.42,4.29s-3.41-1.7-3.41-4.26,1.25-4.12,3.41-4.12S32.41,23.69,32.41,25.91Zm-5.63,0c0,2,.72,3.14,2.2,3.14s2.23-1.15,2.23-3.15c0-1.73-.7-3-2.23-3S26.78,24,26.78,25.94Z" transform="translate(-0.89 -1.82)"/><path d="M36.73,30H35.55L32.84,22h1.23l2.08,6.29L38.25,22h1.21Z" transform="translate(-0.89 -1.82)"/><path d="M45.87,23.08H41.53v2.29H45.1v1.11H41.53v2.45h4.34V30H40.34V22h5.53Z" transform="translate(-0.89 -1.82)"/><path d="M50.68,22a2.41,2.41,0,0,1,2.56,2.43,2.38,2.38,0,0,1-1.62,2.25l2,3.4H52.24l-1.87-3.26H48.44V30H47.25V22Zm-2.24,1.12v2.59h2.24a1.3,1.3,0,1,0,0-2.59Z" transform="translate(-0.89 -1.82)"/><path d="M63.81,30H62.62L59,24.09V30H57.85V22H59l3.58,5.92V22h1.19Z" transform="translate(-0.89 -1.82)"/><path d="M72,25.91c0,2.55-1.15,4.29-3.41,4.29s-3.41-1.7-3.41-4.26,1.25-4.12,3.41-4.12S72,23.69,72,25.91Zm-5.62,0c0,2,.72,3.14,2.19,3.14s2.23-1.15,2.23-3.15c0-1.73-.69-3-2.23-3S66.36,24,66.36,25.94Z" transform="translate(-0.89 -1.82)"/><path d="M80,30H78.87L77.25,23.9,75.58,30h-1L72.44,22h1.24l1.45,6,1.59-6h1l1.61,5.95L80.83,22h1.22Z" transform="translate(-0.89 -1.82)"/></svg>