<?xml version="1.0" encoding="utf-8"?>
<!-- Generator: Adobe Illustrator 22.0.1, SVG Export Plug-In . SVG Version: 6.00 Build 0)  -->
<svg version="1.1" id="Ebene_1" xmlns="http://www.w3.org/2000/svg" xmlns:xlink="http://www.w3.org/1999/xlink" x="0px" y="0px"
	 viewBox="0 0 379.9 166.9" style="enable-background:new 0 0 379.9 166.9;" xml:space="preserve">
<style type="text/css">
	.st0{clip-path:url(#SVGID_2_);}
</style>
<title>logo</title>
<g>
	<defs>
		<rect id="SVGID_1_" width="379.9" height="166.9"/>
	</defs>
	<clipPath id="SVGID_2_">
		<use xlink:href="#SVGID_1_"  style="overflow:visible;"/>
	</clipPath>
	<g class="st0">
		<path d="M140.3,102.3h-7.4V64.6h11l9.6,30.1l9.5-30.1h11v37.7h-7.6V74.4l-8.8,27.9h-8.2l-9.1-28.1L140.3,102.3z M190.4,102.3h-7.8
			V64.6h7.8V102.3z M206.4,102.3h-7.5V64.6h9.2l15.1,27.4V64.6h7.5v37.7h-9.2l-15-27.2L206.4,102.3z M247,102.3h-7.8V64.6h7.8
			L247,102.3z M302.5,116.2h-35.8c1.9-4.5,3.4-9.2,4.5-13.9h45.2l11.9-11.9h-55.2c0.2-2.3,0.3-4.6,0.3-7s-0.1-4.7-0.3-7h69.1
			l11.9-11.9h-82.9c-1.1-4.8-2.6-9.4-4.5-13.9H368l11.9-11.9H260.4c-24.6-38.9-76.1-50.4-115-25.8c-10.4,6.6-19.2,15.4-25.8,25.8H0
			l11.9,12h101.3c-1.9,4.5-3.4,9.2-4.5,13.9H25.8l11.9,11.9h69.1c-0.2,2.3-0.3,4.6-0.3,7s0.1,4.7,0.3,7H51.6l11.9,11.8h45.2
			c1.1,4.8,2.6,9.4,4.5,13.9H77.4l11.9,11.9h30.2c24.6,38.9,76.1,50.4,115,25.8c10.4-6.6,19.2-15.4,25.8-25.8h30.2L302.5,116.2z
			 M190,155c-39.5,0-71.5-32-71.5-71.5s32-71.5,71.5-71.5s71.5,32,71.5,71.5C261.5,123,229.5,155,190,155"/>
	</g>
</g>
</svg>
