<svg xmlns="http://www.w3.org/2000/svg" viewBox="0 0 233.95 11.41"><title>text_1b</title><path d="M.34,3h9v3.1H8.24l-.86-2.3H5.86v9.38H7.31V14H2.38v-.84H3.82V3.79H2.29l-.84,2.3H.34Z" transform="translate(-0.34 -2.84)"/><path d="M19.67,3.79v9.38h1.15V14H16.49v-.84h1.12V8.62H13.24v4.55h1.14V14H10.05v-.84H11.2V3.79H10.05V3h4.33v.8H13.24v4h4.37V3.79H16.49V3h4.33v.8Z" transform="translate(-0.34 -2.84)"/><path d="M23,3.79H21.57V3h8.76v3.1H29.14l-.87-2.3H25.06V7.7h1.78V6.55h1V9.78h-1V8.6H25.06v4.57h3.36l.85-2.26h1.19V14H21.57v-.84H23Z" transform="translate(-0.34 -2.84)"/><path d="M45.73,3v.82h-1.4V14H43.08L37.77,5.64v7.53h1.4V14H35.51v-.84h1.33V3.81H35.55V3h3l4.82,7.53V3.81H42.06V3Z" transform="translate(-0.34 -2.84)"/><path d="M47.84,3.79H46.39V3h8.76v3.1H54l-.87-2.3H49.88V7.7h1.78V6.55h1V9.78h-1V8.6H49.88v4.57h3.36l.85-2.26h1.19V14H46.39v-.84h1.45Z" transform="translate(-0.34 -2.84)"/><path d="M72.06,3v.8H70.5L67.33,14H66.18L63.71,6.39,61.52,14H60.35L57.05,3.79H55.59V3h4.88v.8H59.14L61.39,11l2.27-7.89h1.09L67.27,11l2.21-7.19H67.81V3Z" transform="translate(-0.34 -2.84)"/><path d="M88.07,3.79v9.38H89.4V14H84.83v-.84H86V5.9L83,14H81.92L78.67,5.87v7.3h1.26V14H76.4v-.84h1.32V3.79H76.4V3h3.28L83,11.31,86.14,3h3.23v.8Z" transform="translate(-0.34 -2.84)"/><path d="M93.7,3.79v9.38h1.65V14H90v-.84h1.65V3.79H90V3h5.34v.8Z" transform="translate(-0.34 -2.84)"/><path d="M106.23,3v.82h-1.39V14h-1.26l-5.3-8.37v7.53h1.39V14H96v-.84h1.33V3.81H96.05V3h3l4.81,7.53V3.81h-1.31V3Z" transform="translate(-0.34 -2.84)"/><path d="M110.5,3.79v9.38h1.65V14h-5.34v-.84h1.65V3.79h-1.65V3h5.34v.8Z" transform="translate(-0.34 -2.84)"/><path d="M122.67,8.42a2.42,2.42,0,0,1,1.79,2.39c0,2.25-2.11,3.35-3.93,3.35a4.24,4.24,0,0,1-3.25-1.43l.77-.68a3.12,3.12,0,0,0,2.48,1.09c.93,0,1.9-.58,1.9-2.21,0-1.31-.71-2-1.77-2h-.74v-.8A2.16,2.16,0,0,0,122.16,6a1.5,1.5,0,0,0-1.58-1.7,2.58,2.58,0,0,0-2.21,1.32l-.87-.56a3.67,3.67,0,0,1,3.2-1.78c1.61,0,3.45.87,3.45,2.82A2.85,2.85,0,0,1,122.67,8.42Z" transform="translate(-0.34 -2.84)"/><path d="M129.55,10.06h-3.87v-1h3.87Z" transform="translate(-0.34 -2.84)"/><path d="M132,13.17V3.79h-1.43V3h5.48c3.65,0,5,2.52,5,5.39,0,2.67-1.36,5.63-5,5.63h-5.48v-.84Zm4,0c2.15,0,2.82-2.41,2.82-4.81,0-2.58-.82-4.57-2.82-4.57h-2v9.38Z" transform="translate(-0.34 -2.84)"/><path d="M152,8.18c0,2.89-1.41,6-5,6s-4.95-2.9-4.95-5.37c0-2.9,1.45-6,4.95-6C150.69,2.84,152,5.7,152,8.18Zm-5-4.59c-2.1,0-2.82,1.92-2.82,4.11,0,2.72.85,5.73,2.84,5.73,2.16,0,2.87-1.89,2.87-4.2C149.9,6.51,149,3.59,147,3.59Z" transform="translate(-0.34 -2.84)"/><path d="M163,8.18c0,2.89-1.41,6-5,6-3.71,0-4.95-2.9-4.95-5.37,0-2.9,1.44-6,4.95-6S163,5.7,163,8.18Zm-5-4.59c-2.11,0-2.82,1.92-2.82,4.11,0,2.72.85,5.73,2.84,5.73,2.15,0,2.87-1.89,2.87-4.2C160.87,6.51,160,3.59,158,3.59Z" transform="translate(-0.34 -2.84)"/><path d="M168.16,9h-1v4.18h1.29V14h-4.62v-.84h1.29V3.81h-1.29V3h5.05c2.5,0,3.57,1.35,3.57,2.93a2.84,2.84,0,0,1-2.14,2.84l2.83,4.41h1.3V14h-3.11Zm-1-.86h1.58c.82,0,1.52-.9,1.52-2.18s-.63-2.14-1.52-2.14h-1.58Z" transform="translate(-0.34 -2.84)"/><path d="M188.08,3.79v9.38h1.16V14h-4.33v-.84H186V8.62h-4.37v4.55h1.14V14h-4.34v-.84h1.16V3.79h-1.16V3h4.34v.8h-1.14v4H186V3.79h-1.12V3h4.33v.8Z" transform="translate(-0.34 -2.84)"/><path d="M200.65,13.17V14h-4.58v-.84h1.19l-1.13-3.12H193l-1.09,3.12h1.26V14h-3.64v-.84h1.38L194.58,3h1.17l3.67,10.18Zm-4.78-4L194.6,5.54l-1.26,3.62Z" transform="translate(-0.34 -2.84)"/><path d="M200.72,3h9v3.1h-1.11l-.87-2.3h-1.51v9.38h1.45V14h-4.93v-.84h1.44V3.79h-1.53l-.85,2.3h-1.1Z" transform="translate(-0.34 -2.84)"/><path d="M218.45,10.88h.88a3.71,3.71,0,0,1-3.84,3.31c-3.71,0-5-2.94-5-5.43,0-2.91,1.38-5.92,5-5.92A4.56,4.56,0,0,1,219,4.22v1.9h-1.46c-.19-1.87-1.22-2.5-2.07-2.5-2.14,0-2.84,1.94-2.84,4.12,0,2.66,1.09,5.5,3,5.5A2.66,2.66,0,0,0,218.45,10.88Z" transform="translate(-0.34 -2.84)"/><path d="M229.82,3.79v9.38H231V14h-4.34v-.84h1.12V8.62h-4.37v4.55h1.14V14H220.2v-.84h1.15V3.79H220.2V3h4.33v.8h-1.14v4h4.37V3.79h-1.12V3H231v.8Z" transform="translate(-0.34 -2.84)"/><path d="M233.17,12a1.06,1.06,0,0,1,1.12,1.12,1.09,1.09,0,0,1-1.12,1.16A1.11,1.11,0,0,1,232,13.09,1.08,1.08,0,0,1,233.17,12Z" transform="translate(-0.34 -2.84)"/></svg>