<svg xmlns="http://www.w3.org/2000/svg" viewBox="0 0 197.9 11.41"><title>text_1a</title><path d="M1.84,3.79H.39V3H9.15v3.1H8l-.87-2.3H3.88V7.7H5.66V6.55h1V9.78h-1V8.6H3.88v4.57H7.24l.85-2.26H9.28V14H.39v-.84H1.84Z" transform="translate(-0.39 -2.84)"/><path d="M21.2,13.17V14H16v-.84h1.39l-2.28-3.6-2.5,3.6h1.5V14H9.72v-.84h1.67L14.48,8.7,11.36,3.79H9.89V3h5v.8H13.77l2,3.13,2.16-3.13H16.44V3H20.5v.8H19l-2.69,4,3.45,5.35Z" transform="translate(-0.39 -2.84)"/><path d="M26.71,3c2.46,0,3.55,1.35,3.55,2.93S28.92,9,26.71,9H25v4.18h1.31V14H21.61v-.84h1.31V3.79H21.61V3ZM25,8.13h1.55c.85,0,1.53-.94,1.53-2.18s-.61-2.16-1.53-2.16H25Z" transform="translate(-0.39 -2.84)"/><path d="M39.15,10.91h1.12V14h-9v-.84h1.46V3.79H31.26V3h5v.8H34.76v9.38H38.3Z" transform="translate(-0.39 -2.84)"/><path d="M51,8.18c0,2.89-1.41,6-5,6-3.71,0-5-2.9-5-5.37,0-2.9,1.45-6,5-6S51,5.7,51,8.18Zm-5-4.59c-2.11,0-2.82,1.92-2.82,4.11,0,2.72.85,5.73,2.84,5.73,2.16,0,2.87-1.89,2.87-4.2C48.94,6.51,48.06,3.59,46.05,3.59Z" transform="translate(-0.39 -2.84)"/><path d="M56.23,9h-1v4.18h1.3V14H51.88v-.84h1.29V3.81H51.88V3h5c2.5,0,3.57,1.35,3.57,2.93a2.84,2.84,0,0,1-2.14,2.84l2.84,4.41h1.29V14H59.38Zm-1-.86H56.8c.81,0,1.51-.9,1.51-2.18s-.63-2.14-1.51-2.14H55.21Z" transform="translate(-0.39 -2.84)"/><path d="M63.77,3.79H62.32V3h8.76v3.1H69.89L69,3.79H65.81V7.7h1.78V6.55h1V9.78h-1V8.6H65.81v4.57h3.36L70,10.91h1.19V14H62.32v-.84h1.45Z" transform="translate(-0.39 -2.84)"/><path d="M87.94,3.79v9.38h1.32V14H84.69v-.84H85.9V5.9L82.84,14h-1L78.54,5.87v7.3H79.8V14H76.26v-.84h1.33V3.79H76.26V3h3.28l3.3,8.32L86,3h3.23v.8Z" transform="translate(-0.39 -2.84)"/><path d="M100,8.18c0,2.89-1.41,6-5,6s-4.94-2.9-4.94-5.37c0-2.9,1.44-6,4.94-6C98.72,2.84,100,5.7,100,8.18Zm-5-4.59c-2.11,0-2.83,1.92-2.83,4.11,0,2.72.85,5.73,2.84,5.73,2.16,0,2.88-1.89,2.88-4.2C97.94,6.51,97.05,3.59,95.05,3.59Z" transform="translate(-0.39 -2.84)"/><path d="M105.23,9h-1v4.18h1.29V14h-4.62v-.84h1.29V3.81h-1.29V3h5.05c2.49,0,3.57,1.35,3.57,2.93a2.85,2.85,0,0,1-2.15,2.84l2.84,4.41h1.29V14h-3.11Zm-1-.86h1.58c.82,0,1.51-.9,1.51-2.18s-.63-2.14-1.51-2.14h-1.58Z" transform="translate(-0.39 -2.84)"/><path d="M112.76,3.79h-1.45V3h8.76v3.1h-1.19L118,3.79H114.8V7.7h1.78V6.55h1V9.78h-1V8.6H114.8v4.57h3.37l.84-2.26h1.2V14h-8.9v-.84h1.45Z" transform="translate(-0.39 -2.84)"/><path d="M133.28,10.88h.88a3.71,3.71,0,0,1-3.84,3.31c-3.71,0-4.95-2.94-4.95-5.43,0-2.91,1.38-5.92,4.95-5.92a4.6,4.6,0,0,1,3.54,1.38v1.9h-1.47c-.18-1.87-1.22-2.5-2.07-2.5-2.14,0-2.84,1.94-2.84,4.12,0,2.66,1.09,5.5,3,5.5A2.66,2.66,0,0,0,133.28,10.88Z" transform="translate(-0.39 -2.84)"/><path d="M145.09,8.18c0,2.89-1.41,6-5,6-3.71,0-4.95-2.9-4.95-5.37,0-2.9,1.45-6,4.95-6C143.78,2.84,145.09,5.7,145.09,8.18Zm-5-4.59c-2.11,0-2.82,1.92-2.82,4.11,0,2.72.85,5.73,2.84,5.73,2.16,0,2.87-1.89,2.87-4.2C143,6.51,142.12,3.59,140.11,3.59Z" transform="translate(-0.39 -2.84)"/><path d="M150.29,9h-1v4.18h1.29V14h-4.63v-.84h1.3V3.81h-1.3V3H151c2.5,0,3.57,1.35,3.57,2.93a2.84,2.84,0,0,1-2.14,2.84l2.84,4.41h1.29V14h-3.11Zm-1-.86h1.58c.81,0,1.51-.9,1.51-2.18s-.63-2.14-1.51-2.14h-1.58Z" transform="translate(-0.39 -2.84)"/><path d="M166.6,3v.82h-1.4V14H164l-5.31-8.37v7.53H160V14h-3.66v-.84h1.33V3.81h-1.29V3h3l4.81,7.53V3.81h-1.3V3Z" transform="translate(-0.39 -2.84)"/><path d="M168.71,3.79h-1.45V3H176v3.1h-1.19L174,3.79h-3.21V7.7h1.78V6.55h1V9.78h-1V8.6h-1.78v4.57h3.36l.85-2.26h1.19V14h-8.89v-.84h1.45Z" transform="translate(-0.39 -2.84)"/><path d="M181.28,9h-1v4.18h1.29V14h-4.63v-.84h1.3V3.81h-1.3V3h5c2.5,0,3.57,1.35,3.57,2.93a2.84,2.84,0,0,1-2.14,2.84l2.84,4.41h1.29V14h-3.11Zm-1-.86h1.58c.81,0,1.51-.9,1.51-2.18s-.63-2.14-1.51-2.14h-1.58Z" transform="translate(-0.39 -2.84)"/><path d="M189.1,10.88c.24,1.89.94,2.53,1.93,2.53a1.74,1.74,0,0,0,1.8-1.87,1.76,1.76,0,0,0-.6-1.32c-.34-.29-2.7-1.77-3.21-2.13a3.06,3.06,0,0,1-1.43-2.51c0-1.58,1.29-2.74,3.5-2.74A4.57,4.57,0,0,1,194.39,4V6.1h-1.48c-.18-2-.86-2.51-1.85-2.51-1.16,0-1.55.88-1.55,1.75a1.49,1.49,0,0,0,.63,1.22c.43.27,2.52,1.69,3.11,2a3,3,0,0,1,1.57,2.62c0,1.68-1.48,3-3.79,3A4.4,4.4,0,0,1,187.64,13V10.88Z" transform="translate(-0.39 -2.84)"/><path d="M197.16,12a1.07,1.07,0,0,1,1.13,1.12,1.14,1.14,0,1,1-2.27,0A1.08,1.08,0,0,1,197.16,12Z" transform="translate(-0.39 -2.84)"/></svg>